<?xml version="1.0" encoding="UTF-8" standalone="no"?>
<svg width="18px" height="20px" viewBox="0 0 18 20" version="1.1" xmlns="http://www.w3.org/2000/svg" xmlns:xlink="http://www.w3.org/1999/xlink" xmlns:sketch="http://www.bohemiancoding.com/sketch/ns">
    <!-- Generator: Sketch 3.4.2 (15855) - http://www.bohemiancoding.com/sketch -->
    <title>icon_linux-dark</title>
    <desc>Created with Sketch.</desc>
    <defs></defs>
    <g id="Page-1" stroke="none" stroke-width="1" fill="none" fill-rule="evenodd" sketch:type="MSPage">
        <g id="Desktop-HD" sketch:type="MSArtboardGroup" transform="translate(-380.000000, -120.000000)" fill="#4A4A4A">
            <g id="icon_linux-dark" sketch:type="MSLayerGroup" transform="translate(380.000000, 120.000000)">
                <path d="M16.7057494,15.5372557 C16.1736827,15.3306554 15.7353015,15.0053136 15.7671012,14.3822319 C15.798064,13.7599799 15.2969203,13.3476087 15.2969203,13.3476087 C15.2969203,13.3476087 15.7353015,11.9851927 15.3278832,10.8602973 C14.9213016,9.73374277 13.5760719,7.92886487 12.5436983,6.56724069 C11.5130781,5.20482466 12.388127,3.6349787 11.4503156,1.62267087 C10.5107907,-0.389636959 8.07130154,-0.271687349 6.75703464,0.587218091 C5.44189105,1.44453981 5.84847257,3.57558911 5.9103584,4.58419402 C5.97312091,5.58951837 5.93873104,6.30611504 5.81750973,6.56641112 C5.69373807,6.82670721 4.84789867,7.78161639 4.2840323,8.58034038 C3.72100276,9.37910208 3.31442124,11.0375611 2.9061262,11.7183732 C2.49954467,12.3991853 2.78147786,13.0206077 2.78147786,13.0206077 C2.78147786,13.0206077 2.49954467,13.1084666 2.28033415,13.5550009 C2.06112363,13.9974628 1.62361911,14.2048927 0.841418905,14.3513116 C0.0592186946,14.499352 0.0592186946,14.9751851 0.246589696,15.5079569 C0.43483738,16.0398991 0.247466379,16.3376012 0.0282558558,17.0167918 C-0.190954667,17.6959825 0.904181416,17.9049961 1.96747798,18.0213243 C3.03165122,18.1408953 4.22043296,18.7924086 5.22272037,18.9103582 C6.22241759,19.0290996 6.53615045,18.2596368 6.53615045,18.2596368 C6.53615045,18.2596368 7.66220952,18.0213243 8.85015442,17.9936469 C10.0398128,17.9635561 11.1641584,18.2303379 11.1641584,18.2303379 C11.1641584,18.2303379 11.3833689,18.7037201 11.7899504,18.9103205 C12.1974086,19.1177504 13.0732944,19.1478411 13.6363239,18.5866001 C14.2001903,18.022908 15.7019079,17.3136643 16.5459939,16.8687515 C17.3925506,16.4230468 17.2378161,15.7430642 16.7057494,15.5372557 L16.7057494,15.5372557 Z M9.38385493,2.48165172 C9.92022535,2.48165172 10.353466,2.98512461 10.353466,3.60575525 C10.353466,4.04659569 10.1360088,4.42646281 9.8188091,4.61107959 C9.73799489,4.57774601 9.65291682,4.54358285 9.56265835,4.5069687 C9.75349624,4.41748839 9.88930236,4.18732073 9.88930236,3.91887979 C9.88930236,3.56914109 9.66064757,3.28524 9.3778377,3.28524 C9.09849472,3.28524 8.86896325,3.56993296 8.86896325,3.91887979 C8.86896325,4.04821712 8.9016396,4.17265245 8.9575082,4.27431234 C8.79073924,4.21167989 8.63688143,4.15311987 8.5165368,4.11002 C8.45122394,3.9587368 8.41424387,3.78792103 8.41424387,3.60571754 C8.41424387,2.98512461 8.84748452,2.48165172 9.38385493,2.48165172 L9.38385493,2.48165172 Z M9.31423836,4.8518431 C9.58242356,4.93970199 9.88069493,5.1048239 9.84977194,5.26828668 C9.81797227,5.43257902 9.67698575,5.43257902 9.31423836,5.64245994 C8.95065414,5.85068173 8.16327353,6.31267617 7.91138665,6.3427669 C7.6578261,6.37285762 7.51683959,6.238656 7.24865438,6.07515552 C6.98046917,5.91086318 6.47589843,5.52122976 6.60309712,5.31383755 C6.60309712,5.31383755 6.99593067,5.0291446 7.16871686,4.8803124 C7.34233988,4.73065063 7.78418796,4.37355894 8.05237317,4.41993938 C8.32055837,4.46303926 9.04605315,4.76236279 9.31423836,4.8518431 L9.31423836,4.8518431 Z M6.89622794,2.65978278 C7.31914764,2.65978278 7.66296665,3.13640781 7.66296665,3.72449672 C7.66296665,3.83268004 7.65180887,3.93271851 7.6302903,4.02951411 C7.52716053,4.06284769 7.4222774,4.11654342 7.32086116,4.19787888 C7.26929627,4.2377359 7.22370877,4.27514191 7.17987464,4.31254792 C7.24694087,4.19380645 7.27356014,4.02461211 7.24347398,3.84648105 C7.1867287,3.52521165 6.96066412,3.29093386 6.73631304,3.32430516 C6.51283866,3.36091931 6.37786937,3.64964698 6.43461465,3.97257552 C6.49219676,4.29550405 6.71742452,4.52974414 6.94089891,4.49475141 C6.95381005,4.49230041 6.96584451,4.48905755 6.97871581,4.48498513 C6.86956881,4.58423173 6.7689894,4.66963961 6.66669647,4.74200064 C6.35726733,4.6061776 6.13032606,4.2019136 6.13032606,3.72362944 C6.13036591,3.13561595 6.47330824,2.65978278 6.89622794,2.65978278 L6.89622794,2.65978278 Z M6.07019359,17.6187194 C5.97049086,18.0433079 5.44527823,18.3515681 5.44527823,18.3515681 C4.96908013,18.493085 3.64532911,17.9497551 3.0453195,17.7114426 C2.44618658,17.476373 0.920439895,17.4031824 0.720157748,17.1933014 C0.521589118,16.9785562 0.81986048,16.5060036 0.89637097,16.0578102 C0.970291261,15.6063739 0.746816872,15.324132 0.820737163,15.0158717 C0.89637097,14.7092329 1.87112258,14.7092329 2.2450676,14.4969387 C2.62068628,14.283023 2.69548326,13.6680862 2.99546814,13.503002 C3.29545301,13.3362587 3.84473457,13.9275905 4.06992248,14.2602476 C4.29427355,14.5896618 5.14437682,16.009846 5.49425291,16.3644867 C5.84496584,16.7191274 6.16989632,17.194131 6.07019359,17.6187194 L6.07019359,17.6187194 Z M11.6032967,13.4932358 C11.5130383,13.9105089 11.5130383,15.4185143 11.5130383,15.4185143 C11.5130383,15.4185143 10.5434272,16.6898286 9.04003592,16.8980503 C7.53835816,17.1062721 6.78708094,16.9566104 6.78708094,16.9566104 L5.94295505,16.0399368 C5.94295505,16.0399368 6.59879341,15.9496646 6.50598459,15.3282421 C6.41142241,14.7068196 4.50403981,13.8478764 4.15934411,13.0776218 C3.81636193,12.3089885 4.09745828,11.0051325 4.53583948,10.3535815 C4.97338384,9.70286018 5.25360351,8.2827137 5.69198471,7.8076724 C6.13036591,7.33591166 6.47334809,6.32892818 6.31690007,5.88401531 C6.31690007,5.88401531 7.2555483,6.95035068 7.9114265,6.77384105 C8.56814154,6.59570999 10.0406098,5.55863578 10.258067,5.73759641 C10.4764008,5.91572747 12.3537371,9.82239352 12.5402314,11.0660681 C12.7284791,12.3089131 12.4147463,13.2557151 12.4147463,13.2557151 C12.4147463,13.2557151 11.6961055,13.0784136 11.6032967,13.4932358 L11.6032967,13.4932358 Z M16.4048878,16.2823217 C16.1126337,16.5360944 14.4863076,17.1575169 13.9989119,17.6422867 C13.5141064,18.1229842 12.8805836,18.514239 12.4929304,18.4003619 C12.1026871,18.2840337 11.7631319,17.7789394 11.9333279,17.0420183 C12.1026472,16.3075481 12.249651,15.5023007 12.225582,15.04189 C12.2015131,14.581517 12.1026472,13.9592649 12.225582,13.8673713 C12.3468033,13.777891 12.5401916,13.82265 12.5401916,13.82265 C12.5401916,13.82265 12.4447926,14.6953942 13.0026417,14.927221 C13.5604908,15.1549753 14.3633728,14.8352896 14.6066124,14.6035006 C14.8507287,14.3749543 15.0209247,14.0300799 15.0209247,14.0300799 C15.0209247,14.0300799 15.2633274,14.1464081 15.2392585,14.5132284 C15.2151896,14.8808782 15.4085778,15.411199 15.7747921,15.594232 C16.1384162,15.775606 16.697142,16.0301705 16.4048878,16.2823217 L16.4048878,16.2823217 Z" id="Shape" sketch:type="MSShapeGroup"></path>
            </g>
        </g>
    </g>
</svg>