<?xml version="1.0" encoding="UTF-8" standalone="no"?>
<svg width="17px" height="21px" viewBox="0 0 17 21" version="1.1" xmlns="http://www.w3.org/2000/svg" xmlns:xlink="http://www.w3.org/1999/xlink" xmlns:sketch="http://www.bohemiancoding.com/sketch/ns">
    <!-- Generator: Sketch 3.4.2 (15855) - http://www.bohemiancoding.com/sketch -->
    <title>icon_apple-dark</title>
    <desc>Created with Sketch.</desc>
    <defs></defs>
    <g id="Page-1" stroke="none" stroke-width="1" fill="none" fill-rule="evenodd" sketch:type="MSPage">
        <g id="Desktop-HD" sketch:type="MSArtboardGroup" transform="translate(-260.000000, -120.000000)" fill="#4A4A4A">
            <g id="icon_apple-dark" sketch:type="MSLayerGroup" transform="translate(260.000000, 120.000000)">
                <path d="M16.1443478,14.7604368 L16.1443478,14.7995672 C15.7486957,15.9978281 15.1843478,17.0247846 14.4956522,17.9778281 C13.8669565,18.8430455 13.0965217,20.0073933 11.7208696,20.0073933 C10.5321739,20.0073933 9.7426087,19.2430455 8.52434783,19.2221759 C7.23565217,19.2013063 6.52695652,19.8613063 5.34869565,20.0273933 L4.94695652,20.0273933 C4.08173913,19.9021759 3.38347826,19.2169585 2.87478261,18.5995672 C1.37478261,16.7752194 0.215652174,14.4186976 -3.55271368e-14,11.4030455 L-3.55271368e-14,10.5169585 C0.0913043478,8.35869764 1.14,6.60391504 2.53391304,5.75348025 C3.26956522,5.30130634 4.28086957,4.91608895 5.40695652,5.08826286 C5.88956522,5.16304547 6.3826087,5.32826286 6.81478261,5.49174112 C7.22434783,5.64913243 7.73652174,5.92826286 8.22173913,5.91348025 C8.55043478,5.90391504 8.8773913,5.73261069 9.20869565,5.61174112 C10.1791304,5.26130634 11.1304348,4.85956721 12.3843478,5.04826286 C13.8913043,5.27608895 14.9608696,5.94565417 15.6217391,6.97869764 C14.3469565,7.79000199 13.3391304,9.01261069 13.5113043,11.1004368 C13.6643478,12.9969585 14.7669565,14.1065237 16.1443478,14.7604368 Z M11.8516315,0 L11.992501,0 C12.1055445,1.39652174 11.572501,2.44 10.9246749,3.19565217 C10.2890228,3.94608696 9.41858797,4.67391304 8.01076189,4.56347826 C7.91684884,3.18695652 8.45076189,2.22086957 9.09771841,1.46695652 C9.69771841,0.764347826 10.7977184,0.139130435 11.8516315,0 Z" id="Shape" sketch:type="MSShapeGroup"></path>
            </g>
        </g>
    </g>
</svg>